# xmcd
#
# Track frame offsets:
#	150
#	22348
#	44711
#	68485
#	92503
#	116094
#	134948
#	158271
#	158496
#	176314
#	188620
#	205286
#	205481
#	221784
#	238531
#	252413
#	273954
#
# Disc length: 3656 seconds
#
# Revision: 2
# Processed by: cddbd v1.4b41PL2 Copyright (c) Steve Scherf et al.
# Submitted via: CDmax 1.7.6
#
DISCID=f60e4611
DTITLE=Various Artist - glt: it's a blues thing
DYEAR=1900
DGENRE=
TTITLE0=The Blue Aces - Back in the Blues Again
TTITLE1=The Dave Chastain Band - Baptized in the Blues
TTITLE2=Rooster Alley - Heaven Sent
TTITLE3=Hip Pocket - Slow Down
TTITLE4=Robin Crowe Band - Bad Medicine
TTITLE5=Bounty Hunter - I Ain't Drunk
TTITLE6=Funky Kings - Black Cat Bone
TTITLE7=A moment with the Doctor
TTITLE8=Sally Weisenburg and The Famous Sidemen - Rumpled Bed Blues
TTITLE9=Exit 125 - Midnight Cannonball
TTITLE10=Easy Money - Victim
TTITLE11=Another Delta House Call
TTITLE12=The Heatersons - Down in the Bottom
TTITLE13=Sister Groove and The Crosstown Jam - Dr. Feelgood
TTITLE14=Lorrie Ann and The 3rd Rhythm Band - As Long as I'm Movin'
TTITLE15=Witness - The Thrill is Gone
TTITLE16=The Doctor's Final Word
EXTD=
EXTT0=
EXTT1=
EXTT2=
EXTT3=
EXTT4=
EXTT5=
EXTT6=
EXTT7=
EXTT8=
EXTT9=
EXTT10=
EXTT11=
EXTT12=
EXTT13=
EXTT14=
EXTT15=
EXTT16=
PLAYORDER=
